<svg width="66" height="52" viewBox="0 0 66 52" fill="none" xmlns="http://www.w3.org/2000/svg">
<path opacity="0.9" d="M4.35385 51.1384C1.83077 43.5692 0.569231 36.1261 0.569231 28.8092C0.569231 19.9785 2.77692 12.9769 7.19231 7.80461C11.7338 2.6323 18.3569 0.0461436 27.0615 0.0461436V12.3461C20.5015 12.3461 17.2215 16.5092 17.2215 24.8354V27.8631H29.1431V51.1384H4.35385ZM40.3077 51.1384C37.7846 43.5692 36.5231 36.1261 36.5231 28.8092C36.5231 19.9785 38.7308 12.9769 43.1462 7.80461C47.6877 2.6323 54.3108 0.0461436 63.0154 0.0461436V12.3461C56.4554 12.3461 53.1754 16.5092 53.1754 24.8354V27.8631H65.0969V51.1384H40.3077Z" fill="white"/>
</svg>
