<svg width="66" height="52" viewBox="0 0 66 52" fill="none" xmlns="http://www.w3.org/2000/svg">
<path opacity="0.9" d="M25.3585 0.0461436C27.8815 7.61537 29.1431 15.0585 29.1431 22.3754C29.1431 31.2061 26.8723 38.2077 22.3308 43.38C17.9154 48.5523 11.3554 51.1384 2.65077 51.1384V38.8384C9.21077 38.8384 12.4908 34.6754 12.4908 26.3492V23.3215H0.569231V0.0461436H25.3585ZM61.3123 0.0461436C63.8354 7.61537 65.0969 15.0585 65.0969 22.3754C65.0969 31.2061 62.8262 38.2077 58.2846 43.38C53.8692 48.5523 47.3092 51.1384 38.6046 51.1384V38.8384C45.1646 38.8384 48.4446 34.6754 48.4446 26.3492V23.3215H36.5231V0.0461436H61.3123Z" fill="white"/>
</svg>
