<svg width="8" height="15" viewBox="0 0 8 15" fill="none" xmlns="http://www.w3.org/2000/svg">
<path d="M6.3998 4.88079L1.8098 0.290792C1.62244 0.104542 1.36899 0 1.1048 0C0.840616 0 0.587165 0.104542 0.399802 0.290792C0.306074 0.383756 0.23168 0.494357 0.180911 0.616216C0.130142 0.738075 0.104004 0.868781 0.104004 1.00079C0.104004 1.1328 0.130142 1.26351 0.180911 1.38537C0.23168 1.50723 0.306074 1.61783 0.399802 1.71079L4.9998 6.29079C5.09353 6.38376 5.16793 6.49436 5.21869 6.61622C5.26946 6.73808 5.2956 6.86878 5.2956 7.00079C5.2956 7.13281 5.26946 7.26351 5.21869 7.38537C5.16793 7.50723 5.09353 7.61783 4.9998 7.71079L0.399802 12.2908C0.211499 12.4778 0.105184 12.7319 0.104246 12.9973C0.103308 13.2626 0.207825 13.5175 0.394803 13.7058C0.581781 13.8941 0.835903 14.0004 1.10127 14.0014C1.36663 14.0023 1.6215 13.8978 1.8098 13.7108L6.3998 9.12079C6.96161 8.55829 7.27716 7.7958 7.27716 7.00079C7.27716 6.20579 6.96161 5.44329 6.3998 4.88079Z" fill="white"/>
</svg>
