<svg width="24" height="24" viewBox="0 0 24 24" fill="none" xmlns="http://www.w3.org/2000/svg">
<path d="M22.95 9.59921C22.7625 9.41174 22.5082 9.30642 22.243 9.30642C21.9778 9.30642 21.7235 9.41174 21.536 9.59921L10.644 20.5382C10.1797 21.0026 9.6285 21.3709 9.02185 21.6223C8.4152 21.8736 7.76499 22.003 7.10834 22.003C5.78218 22.0031 4.51029 21.4764 3.57249 20.5387C2.63468 19.601 2.10778 18.3292 2.10768 17.0031C2.10759 15.6769 2.63432 14.405 3.57199 13.4672L14.121 2.87521C14.6851 2.3201 15.4457 2.01038 16.2371 2.01351C17.0285 2.01664 17.7866 2.33236 18.3463 2.89191C18.906 3.45147 19.2219 4.20951 19.2252 5.00092C19.2285 5.79233 18.919 6.55299 18.364 7.11721L7.81499 17.7092C7.62474 17.8915 7.37145 17.9932 7.10799 17.9932C6.84452 17.9932 6.59124 17.8915 6.40099 17.7092C6.21352 17.5217 6.1082 17.2674 6.1082 17.0022C6.1082 16.737 6.21352 16.4827 6.40099 16.2952L15.793 6.86021C15.9751 6.67161 16.0759 6.419 16.0737 6.15681C16.0714 5.89461 15.9662 5.6438 15.7808 5.45839C15.5954 5.27298 15.3446 5.16781 15.0824 5.16553C14.8202 5.16326 14.5676 5.26405 14.379 5.44621L4.98699 14.8812C4.70836 15.1598 4.48734 15.4905 4.33654 15.8545C4.18574 16.2186 4.10813 16.6087 4.10813 17.0027C4.10813 17.3967 4.18574 17.7869 4.33654 18.1509C4.48734 18.5149 4.70836 18.8456 4.98699 19.1242C5.55861 19.6697 6.31837 19.974 7.10849 19.974C7.89861 19.974 8.65837 19.6697 9.22999 19.1242L19.778 8.53121C20.696 7.58951 21.206 6.32406 21.1976 5.00898C21.1892 3.6939 20.663 2.43509 19.733 1.50523C18.803 0.575376 17.5441 0.0493539 16.229 0.0411139C14.9139 0.0328739 13.6486 0.54308 12.707 1.46121L2.15799 12.0532C0.845167 13.366 0.107632 15.1466 0.107632 17.0032C0.107632 18.8598 0.845167 20.6404 2.15799 21.9532C3.47081 23.266 5.25138 24.0036 7.10799 24.0036C8.9646 24.0036 10.7452 23.266 12.058 21.9532L22.95 11.0172C23.0434 10.9243 23.1176 10.8138 23.1681 10.6921C23.2187 10.5705 23.2448 10.44 23.2448 10.3082C23.2448 10.1764 23.2187 10.046 23.1681 9.92429C23.1176 9.80261 23.0434 9.69214 22.95 9.59921Z" fill="white"/>
</svg>
