<svg width="95" height="21" viewBox="0 0 95 21" fill="none" xmlns="http://www.w3.org/2000/svg">
<path d="M86.3895 9.70639V16.0533C86.3893 16.2096 86.4205 16.3644 86.4812 16.5088C86.542 16.6533 86.6312 16.7845 86.7437 16.8951C86.8562 17.0057 86.9898 17.0934 87.1368 17.1533C87.2839 17.2131 87.4415 17.2439 87.6007 17.2439H89.2177V20.422H87.6007C87.0168 20.4226 86.4384 20.3102 85.8988 20.0911C85.3592 19.872 84.8689 19.5505 84.456 19.1452C84.0431 18.7398 83.7157 18.2585 83.4925 17.7287C83.2694 17.199 83.1548 16.6312 83.1554 16.0579V9.70639H80.7314V6.53294H83.1554V3.35949L86.3895 2.17041V6.53294H89.2177V9.70639H86.3895Z" fill="black"/>
<path d="M79.1158 6.53271H75.8833V20.4171H79.1158V6.53271Z" fill="black"/>
<path d="M79.5201 2.17018C79.5191 2.61699 79.3644 3.05039 79.0812 3.40019C78.7981 3.74999 78.4029 3.99573 77.9598 4.09762C77.5166 4.19952 77.0514 4.1516 76.6395 3.96164C76.2275 3.77167 75.8929 3.45077 75.6899 3.05089C75.4868 2.65101 75.4272 2.19555 75.5206 1.75825C75.614 1.32094 75.855 0.927379 76.2046 0.64128C76.5542 0.355181 76.9919 0.193288 77.4469 0.181808C77.9019 0.170328 78.3475 0.309934 78.7116 0.578025C78.8646 0.691065 79.0007 0.824664 79.1159 0.9749C79.3794 1.31961 79.5213 1.73921 79.5201 2.17018Z" fill="#6321F9"/>
<path d="M94.8741 18.8295C94.8745 19.2221 94.7561 19.606 94.5341 19.9325C94.3122 20.2591 93.9965 20.5137 93.6271 20.6641C93.2577 20.8145 92.8511 20.8539 92.4589 20.7774C92.0667 20.7009 91.7063 20.5118 91.4236 20.2342C91.1408 19.9566 90.9482 19.6029 90.8703 19.2178C90.7924 18.8327 90.8325 18.4336 90.9857 18.071C91.1389 17.7083 91.3982 17.3984 91.7308 17.1805C92.0635 16.9625 92.4545 16.8464 92.8544 16.8467C93.1198 16.8463 93.3826 16.8973 93.6278 16.9968C93.8731 17.0963 94.0959 17.2423 94.2835 17.4265C94.4711 17.6107 94.6199 17.8295 94.7212 18.0702C94.8226 18.311 94.8746 18.569 94.8741 18.8295Z" fill="#6321F9"/>
<path d="M13.1081 9.78532C13.8376 8.82569 14.6746 7.63351 14.6746 6.34367C14.6756 5.58702 14.5247 4.83759 14.2306 4.13823C13.9364 3.43887 13.5047 2.80329 12.9601 2.26783C12.4156 1.73237 11.7689 1.30753 11.057 1.01759C10.3451 0.727662 9.58197 0.578328 8.81124 0.578125H0.125977V20.4219H10.4299C11.982 20.4219 13.4705 19.8166 14.5681 18.7391C15.6656 17.6616 16.2821 16.2003 16.2821 14.6765C16.2821 12.6084 14.7709 10.7992 13.1081 9.78532ZM3.35847 3.75623H8.81124C9.47314 3.75625 10.1106 4.00151 10.5963 4.44298C11.082 4.88445 11.3801 5.4896 11.431 6.13748C11.431 6.20259 11.431 6.26926 11.431 6.33592C11.431 6.40258 11.431 6.46924 11.431 6.53436C11.3797 7.18196 11.0815 7.78673 10.5958 8.22787C10.1102 8.66901 9.47289 8.91406 8.81124 8.91405H3.35847V3.75623ZM11.4405 17.0453C11.1205 17.1772 10.7769 17.2447 10.4299 17.2438H3.35847V12.0875H10.4299C10.7769 12.0866 11.1205 12.1541 11.4405 12.2859C11.919 12.4817 12.3278 12.8122 12.6153 13.2357C12.9028 13.6592 13.0563 14.1567 13.0563 14.6656C13.0563 15.1746 12.9028 15.6721 12.6153 16.0956C12.3278 16.5191 11.919 16.8495 11.4405 17.0453Z" fill="black"/>
<path d="M25.3746 6.13281V9.30626C24.8172 9.30586 24.2652 9.41325 23.7502 9.62232C23.2351 9.83138 22.7671 10.138 22.3727 10.5247C21.9784 10.9114 21.6655 11.3706 21.452 11.876C21.2385 12.3814 21.1285 12.9232 21.1283 13.4704V20.4126H17.8989V6.52969H21.1283V8.58383C22.3363 7.03819 23.7986 6.13281 25.3746 6.13281Z" fill="black"/>
<path d="M37.4961 6.53262V8.20228C36.2628 6.89228 34.8115 6.13574 33.2529 6.13574C31.9898 6.13686 30.7475 6.45197 29.6419 7.0517C28.5364 7.65143 27.6035 8.51624 26.9303 9.56549C26.2571 10.6147 25.8655 11.8143 25.792 13.0522C25.7185 14.2902 25.9655 15.5263 26.51 16.6452C26.9385 17.5238 27.5405 18.3102 28.2811 18.9585C29.0217 19.6068 29.8861 20.1042 30.8242 20.4217C31.6057 20.6855 32.4265 20.8196 33.2529 20.8186C34.81 20.8186 36.2628 20.062 37.4961 18.752V20.4217H40.7286V6.53262H37.4961ZM33.2529 17.6405C32.4137 17.6405 31.5934 17.3962 30.8956 16.9384C30.1978 16.4807 29.6539 15.8301 29.3328 15.069C29.0116 14.3078 28.9276 13.4702 29.0913 12.6622C29.255 11.8541 29.6592 11.1119 30.2526 10.5293C30.846 9.9467 31.602 9.54997 32.4251 9.38924C33.2482 9.2285 34.1014 9.311 34.8767 9.62628C35.6521 9.94157 36.3147 10.4755 36.781 11.1605C37.2472 11.8456 37.4961 12.6509 37.4961 13.4748C37.4982 14.0224 37.3898 14.5651 37.1773 15.0714C36.9648 15.5777 36.6524 16.0377 36.2579 16.425C35.8635 16.8122 35.3949 17.1189 34.8792 17.3276C34.3634 17.5362 33.8107 17.6425 33.2529 17.6405Z" fill="black"/>
<path d="M70.2271 8.20247C68.9938 6.89247 67.5426 6.13593 65.9839 6.13593C64.0013 6.13593 62.0998 6.90915 60.6979 8.2855C59.2959 9.66185 58.5083 11.5286 58.5083 13.475C58.5083 15.4215 59.2959 17.2882 60.6979 18.6645C62.0998 20.0409 64.0013 20.8141 65.9839 20.8141C67.541 20.8141 68.9938 20.0576 70.2271 18.7476V20.4219H73.4596V0.578125H70.2255L70.2271 8.20247ZM65.9839 17.6407C65.1447 17.641 64.3241 17.3969 63.6261 16.9394C62.9282 16.4818 62.3841 15.8314 62.0627 15.0702C61.7413 14.3091 61.657 13.4715 61.8206 12.6633C61.9841 11.8551 62.3881 11.1127 62.9814 10.53C63.5748 9.94729 64.3309 9.5504 65.154 9.38954C65.9771 9.22868 66.8304 9.31108 67.6058 9.62633C68.3812 9.94157 69.044 10.4755 69.5103 11.1606C69.9766 11.8456 70.2255 12.6511 70.2255 13.475C70.2274 14.0224 70.119 14.5648 69.9065 15.071C69.694 15.5771 69.3817 16.037 68.9875 16.4241C68.5932 16.8113 68.1249 17.1181 67.6095 17.3269C67.094 17.5357 66.5416 17.6423 65.9839 17.6407Z" fill="black"/>
<path d="M50.0268 6.13574C48.7225 6.13574 47.1102 7.10002 46.3948 8.20228V6.53262H43.1528V20.4217H46.3853V12.8795C46.3853 11.9326 46.7685 11.0245 47.4505 10.3549C48.1325 9.68535 49.0576 9.30919 50.0221 9.30919C50.9866 9.30919 51.9116 9.68535 52.5937 10.3549C53.2757 11.0245 53.6588 11.9326 53.6588 12.8795V20.4217H56.8913V12.8795C56.8913 11.0918 56.1683 9.37716 54.8811 8.11259C53.5938 6.84802 51.8478 6.13698 50.0268 6.13574Z" fill="black"/>
</svg>
